<?xml version="1.0" encoding="UTF-8" standalone="no"?>
<!DOCTYPE svg PUBLIC "-//W3C//DTD SVG 1.1//EN"
 "http://www.w3.org/Graphics/SVG/1.1/DTD/svg11.dtd">
<!-- Generated by graphviz version 2.43.0 (0)
 -->
<!-- Title: G Pages: 1 -->
<svg width="1077pt" height="607pt"
 viewBox="0.00 0.00 1077.00 607.00" xmlns="http://www.w3.org/2000/svg" xmlns:xlink="http://www.w3.org/1999/xlink">
<g id="graph0" class="graph" transform="scale(1 1) rotate(0) translate(4 603)">
<title>G</title>
<polygon fill="white" stroke="transparent" points="-4,4 -4,-603 1073,-603 1073,4 -4,4"/>
<g id="clust1" class="cluster">
<title>cluster_backend</title>
<polygon fill="lightgray" stroke="lightgray" points="65,-175 65,-323 888,-323 888,-175 65,-175"/>
<text text-anchor="middle" x="476.5" y="-307.8" font-family="Times,serif" font-size="14.00">Backend (APIs Next.js)</text>
</g>
<g id="clust2" class="cluster">
<title>cluster_frontend</title>
<polygon fill="lightblue" stroke="lightblue" points="171,-342 171,-591 765,-591 765,-342 171,-342"/>
<text text-anchor="middle" x="468" y="-575.8" font-family="Times,serif" font-size="14.00">Frontend</text>
</g>
<g id="clust3" class="cluster">
<title>cluster_fluxo</title>
<polygon fill="lightyellow" stroke="lightyellow" points="773,-342 773,-591 1061,-591 1061,-342 773,-342"/>
<text text-anchor="middle" x="917" y="-575.8" font-family="Times,serif" font-size="14.00">Fluxo de Usuário</text>
</g>
<g id="clust4" class="cluster">
<title>cluster_storage</title>
<polygon fill="lightgreen" stroke="lightgreen" points="441,-81 441,-156 739,-156 739,-81 441,-81"/>
<text text-anchor="middle" x="590" y="-140.8" font-family="Times,serif" font-size="14.00">Armazenamento</text>
</g>
<g id="clust5" class="cluster">
<title>cluster_integracao</title>
<polygon fill="lightpink" stroke="lightpink" points="8,-8 8,-156 304,-156 304,-8 8,-8"/>
<text text-anchor="middle" x="156" y="-140.8" font-family="Times,serif" font-size="14.00">Integração Externa</text>
</g>
<!-- F -->
<g id="node1" class="node">
<title>F</title>
<polygon fill="#a3c4bc" stroke="black" points="265,-292 107,-292 107,-256 265,-256 265,-292"/>
<text text-anchor="middle" x="186" y="-270.3" font-family="Times,serif" font-size="14.00">API: /api/send&#45;demo</text>
</g>
<!-- G -->
<g id="node2" class="node">
<title>G</title>
<polygon fill="#a3c4bc" stroke="black" points="239,-219 73,-219 73,-183 239,-183 239,-219"/>
<text text-anchor="middle" x="156" y="-197.3" font-family="Times,serif" font-size="14.00">Twilio WhatsApp API</text>
</g>
<!-- F&#45;&gt;G -->
<g id="edge1" class="edge">
<title>F&#45;&gt;G</title>
<path fill="none" stroke="black" d="M178.74,-255.81C175.27,-247.62 171.05,-237.62 167.19,-228.48"/>
<polygon fill="black" stroke="black" points="170.31,-226.88 163.2,-219.03 163.86,-229.6 170.31,-226.88"/>
</g>
<!-- R -->
<g id="node18" class="node">
<title>R</title>
<polygon fill="#d9d9d9" stroke="black" points="246.5,-125 65.5,-125 65.5,-89 246.5,-89 246.5,-125"/>
<text text-anchor="middle" x="156" y="-103.3" font-family="Times,serif" font-size="14.00">Notificações WhatsApp</text>
</g>
<!-- G&#45;&gt;R -->
<g id="edge14" class="edge">
<title>G&#45;&gt;R</title>
<path fill="none" stroke="black" d="M156,-182.7C156,-169.46 156,-150.95 156,-135.66"/>
<polygon fill="black" stroke="black" points="159.5,-135.23 156,-125.23 152.5,-135.23 159.5,-135.23"/>
</g>
<!-- H -->
<g id="node3" class="node">
<title>H</title>
<polygon fill="#a3c4bc" stroke="black" points="448.5,-292 303.5,-292 303.5,-256 448.5,-256 448.5,-292"/>
<text text-anchor="middle" x="376" y="-270.3" font-family="Times,serif" font-size="14.00">API: /api/set&#45;goals</text>
</g>
<!-- I -->
<g id="node4" class="node">
<title>I</title>
<polygon fill="#a3c4bc" stroke="black" points="460.5,-219 257.5,-219 257.5,-183 460.5,-183 460.5,-219"/>
<text text-anchor="middle" x="359" y="-197.3" font-family="Times,serif" font-size="14.00">Armazenamento de Metas</text>
</g>
<!-- H&#45;&gt;I -->
<g id="edge2" class="edge">
<title>H&#45;&gt;I</title>
<path fill="none" stroke="black" d="M371.88,-255.81C369.94,-247.7 367.58,-237.84 365.41,-228.78"/>
<polygon fill="black" stroke="black" points="368.81,-227.94 363.08,-219.03 362,-229.57 368.81,-227.94"/>
</g>
<!-- Q -->
<g id="node17" class="node">
<title>Q</title>
<ellipse fill="#a3c4bc" stroke="black" cx="590" cy="-107" rx="141.07" ry="18"/>
<text text-anchor="middle" x="590" y="-103.3" font-family="Times,serif" font-size="14.00">Banco de Dados Temporário</text>
</g>
<!-- I&#45;&gt;Q -->
<g id="edge11" class="edge">
<title>I&#45;&gt;Q</title>
<path fill="none" stroke="black" d="M401.91,-182.91C440.88,-167.39 498.41,-144.48 539.57,-128.08"/>
<polygon fill="black" stroke="black" points="540.88,-131.33 548.87,-124.38 538.29,-124.83 540.88,-131.33"/>
</g>
<!-- J -->
<g id="node5" class="node">
<title>J</title>
<polygon fill="#d9d9d9" stroke="black" points="679,-292 489,-292 489,-256 679,-256 679,-292"/>
<text text-anchor="middle" x="584" y="-270.3" font-family="Times,serif" font-size="14.00">API: Gestão de Contatos</text>
</g>
<!-- K -->
<g id="node6" class="node">
<title>K</title>
<polygon fill="#d9d9d9" stroke="black" points="701.5,-219 478.5,-219 478.5,-183 701.5,-183 701.5,-219"/>
<text text-anchor="middle" x="590" y="-197.3" font-family="Times,serif" font-size="14.00">Armazenamento de Contatos</text>
</g>
<!-- J&#45;&gt;K -->
<g id="edge3" class="edge">
<title>J&#45;&gt;K</title>
<path fill="none" stroke="black" d="M585.45,-255.81C586.13,-247.79 586.95,-238.05 587.71,-229.07"/>
<polygon fill="black" stroke="black" points="591.21,-229.29 588.56,-219.03 584.23,-228.7 591.21,-229.29"/>
</g>
<!-- K&#45;&gt;Q -->
<g id="edge12" class="edge">
<title>K&#45;&gt;Q</title>
<path fill="none" stroke="black" d="M590,-182.7C590,-169.46 590,-150.95 590,-135.66"/>
<polygon fill="black" stroke="black" points="593.5,-135.23 590,-125.23 586.5,-135.23 593.5,-135.23"/>
</g>
<!-- L -->
<g id="node7" class="node">
<title>L</title>
<polygon fill="#d9d9d9" stroke="black" points="849.5,-292 726.5,-292 726.5,-256 849.5,-256 849.5,-292"/>
<text text-anchor="middle" x="788" y="-270.3" font-family="Times,serif" font-size="14.00">API: Relatórios</text>
</g>
<!-- M -->
<g id="node8" class="node">
<title>M</title>
<polygon fill="#d9d9d9" stroke="black" points="880,-219 720,-219 720,-183 880,-183 880,-219"/>
<text text-anchor="middle" x="800" y="-197.3" font-family="Times,serif" font-size="14.00">Geração de Gráficos</text>
</g>
<!-- L&#45;&gt;M -->
<g id="edge4" class="edge">
<title>L&#45;&gt;M</title>
<path fill="none" stroke="black" d="M790.9,-255.81C792.26,-247.79 793.91,-238.05 795.42,-229.07"/>
<polygon fill="black" stroke="black" points="798.91,-229.47 797.12,-219.03 792,-228.31 798.91,-229.47"/>
</g>
<!-- M&#45;&gt;Q -->
<g id="edge13" class="edge">
<title>M&#45;&gt;Q</title>
<path fill="none" stroke="black" d="M760.99,-182.91C725.78,-167.49 673.92,-144.77 636.56,-128.4"/>
<polygon fill="black" stroke="black" points="637.95,-125.19 627.39,-124.38 635.14,-131.6 637.95,-125.19"/>
</g>
<!-- A -->
<g id="node9" class="node">
<title>A</title>
<polygon fill="#a3c4bc" stroke="black" points="510.5,-560 397.5,-560 397.5,-524 510.5,-524 510.5,-560"/>
<text text-anchor="middle" x="454" y="-538.3" font-family="Times,serif" font-size="14.00">Landing Page</text>
</g>
<!-- B -->
<g id="node10" class="node">
<title>B</title>
<polygon fill="#d9d9d9" stroke="black" points="345,-473 179,-473 179,-437 345,-437 345,-473"/>
<text text-anchor="middle" x="262" y="-451.3" font-family="Times,serif" font-size="14.00">Formulário de Metas</text>
</g>
<!-- A&#45;&gt;B -->
<g id="edge5" class="edge">
<title>A&#45;&gt;B</title>
<path fill="none" stroke="black" d="M397.19,-535.11C354.41,-529.64 300.27,-520.18 283,-506 275.89,-500.16 271.14,-491.49 268,-483"/>
<polygon fill="black" stroke="black" points="271.3,-481.82 264.99,-473.3 264.61,-483.89 271.3,-481.82"/>
<text text-anchor="middle" x="365.5" y="-494.8" font-family="Times,serif" font-size="14.00">Usuário insere número</text>
</g>
<!-- D -->
<g id="node11" class="node">
<title>D</title>
<polygon fill="#d9d9d9" stroke="black" points="584.5,-473 363.5,-473 363.5,-437 584.5,-437 584.5,-473"/>
<text text-anchor="middle" x="474" y="-451.3" font-family="Times,serif" font-size="14.00">Etapa 2: Gestão de Contatos</text>
</g>
<!-- A&#45;&gt;D -->
<g id="edge6" class="edge">
<title>A&#45;&gt;D</title>
<path fill="none" stroke="black" d="M452.35,-523.6C451.92,-513.85 452.2,-501.58 455,-491 455.79,-488.02 456.88,-485.02 458.14,-482.09"/>
<polygon fill="black" stroke="black" points="461.28,-483.63 462.6,-473.12 455.02,-480.51 461.28,-483.63"/>
<text text-anchor="middle" x="525" y="-494.8" font-family="Times,serif" font-size="14.00">Links de navegação</text>
</g>
<!-- E -->
<g id="node12" class="node">
<title>E</title>
<polygon fill="#d9d9d9" stroke="black" points="757,-473 603,-473 603,-437 757,-437 757,-473"/>
<text text-anchor="middle" x="680" y="-451.3" font-family="Times,serif" font-size="14.00">Etapa 3: Relatórios</text>
</g>
<!-- A&#45;&gt;E -->
<g id="edge7" class="edge">
<title>A&#45;&gt;E</title>
<path fill="none" stroke="black" d="M510.76,-530.82C536.96,-525.14 568.15,-516.96 595,-506 612.89,-498.7 631.52,-488.12 646.77,-478.57"/>
<polygon fill="black" stroke="black" points="648.79,-481.43 655.32,-473.1 645.01,-475.54 648.79,-481.43"/>
<text text-anchor="middle" x="694" y="-494.8" font-family="Times,serif" font-size="14.00">Links de navegação</text>
</g>
<!-- B&#45;&gt;H -->
<g id="edge17" class="edge">
<title>B&#45;&gt;H</title>
<path fill="none" stroke="black" d="M344.79,-436.93C370.94,-430.73 394.12,-424.01 398,-419 424.4,-384.95 405.92,-332.44 390.6,-301.12"/>
<polygon fill="black" stroke="black" points="393.67,-299.44 386,-292.13 387.43,-302.63 393.67,-299.44"/>
</g>
<!-- C -->
<g id="node13" class="node">
<title>C</title>
<polygon fill="#d9d9d9" stroke="black" points="365,-386 179,-386 179,-350 365,-350 365,-386"/>
<text text-anchor="middle" x="272" y="-364.3" font-family="Times,serif" font-size="14.00">Envio de Demonstração</text>
</g>
<!-- B&#45;&gt;C -->
<g id="edge8" class="edge">
<title>B&#45;&gt;C</title>
<path fill="none" stroke="black" d="M250.42,-436.87C245.33,-427.22 241.27,-414.93 245,-404 246.09,-400.8 247.6,-397.67 249.36,-394.68"/>
<polygon fill="black" stroke="black" points="252.42,-396.4 255.19,-386.18 246.65,-392.44 252.42,-396.4"/>
<text text-anchor="middle" x="321.5" y="-407.8" font-family="Times,serif" font-size="14.00">Usuário define metas</text>
</g>
<!-- D&#45;&gt;J -->
<g id="edge19" class="edge">
<title>D&#45;&gt;J</title>
<path fill="none" stroke="black" d="M484.55,-436.84C503.93,-405.3 545.31,-337.95 568.11,-300.85"/>
<polygon fill="black" stroke="black" points="571.23,-302.46 573.48,-292.11 565.27,-298.8 571.23,-302.46"/>
</g>
<!-- E&#45;&gt;L -->
<g id="edge20" class="edge">
<title>E&#45;&gt;L</title>
<path fill="none" stroke="black" d="M690.36,-436.84C709.39,-405.3 750.02,-337.95 772.4,-300.85"/>
<polygon fill="black" stroke="black" points="775.51,-302.48 777.68,-292.11 769.51,-298.87 775.51,-302.48"/>
</g>
<!-- C&#45;&gt;F -->
<g id="edge18" class="edge">
<title>C&#45;&gt;F</title>
<path fill="none" stroke="black" d="M255.82,-349.7C242.61,-335.56 223.77,-315.41 208.99,-299.59"/>
<polygon fill="black" stroke="black" points="211.49,-297.14 202.1,-292.23 206.38,-301.92 211.49,-297.14"/>
</g>
<!-- N -->
<g id="node14" class="node">
<title>N</title>
<polygon fill="#d9d9d9" stroke="black" points="1026,-560 808,-560 808,-524 1026,-524 1026,-560"/>
<text text-anchor="middle" x="917" y="-538.3" font-family="Times,serif" font-size="14.00">Etapa 1: Definição de Metas</text>
</g>
<!-- O -->
<g id="node15" class="node">
<title>O</title>
<polygon fill="#d9d9d9" stroke="black" points="1027.5,-473 806.5,-473 806.5,-437 1027.5,-437 1027.5,-473"/>
<text text-anchor="middle" x="917" y="-451.3" font-family="Times,serif" font-size="14.00">Etapa 2: Gestão de Contatos</text>
</g>
<!-- N&#45;&gt;O -->
<g id="edge9" class="edge">
<title>N&#45;&gt;O</title>
<path fill="none" stroke="black" d="M917,-523.8C917,-512.16 917,-496.55 917,-483.24"/>
<polygon fill="black" stroke="black" points="920.5,-483.18 917,-473.18 913.5,-483.18 920.5,-483.18"/>
</g>
<!-- P -->
<g id="node16" class="node">
<title>P</title>
<polygon fill="#d9d9d9" stroke="black" points="1053,-386 781,-386 781,-350 1053,-350 1053,-386"/>
<text text-anchor="middle" x="917" y="-364.3" font-family="Times,serif" font-size="14.00">Etapa 3: Relatórios de Desempenho</text>
</g>
<!-- O&#45;&gt;P -->
<g id="edge10" class="edge">
<title>O&#45;&gt;P</title>
<path fill="none" stroke="black" d="M917,-436.8C917,-425.16 917,-409.55 917,-396.24"/>
<polygon fill="black" stroke="black" points="920.5,-396.18 917,-386.18 913.5,-396.18 920.5,-396.18"/>
</g>
<!-- S -->
<g id="node19" class="node">
<title>S</title>
<polygon fill="#d9d9d9" stroke="black" points="164.5,-52 15.5,-52 15.5,-16 164.5,-16 164.5,-52"/>
<text text-anchor="middle" x="90" y="-30.3" font-family="Times,serif" font-size="14.00">Lembretes Diários</text>
</g>
<!-- R&#45;&gt;S -->
<g id="edge15" class="edge">
<title>R&#45;&gt;S</title>
<path fill="none" stroke="black" d="M140.02,-88.81C131.84,-80 121.72,-69.13 112.74,-59.46"/>
<polygon fill="black" stroke="black" points="115.2,-56.97 105.83,-52.03 110.07,-61.74 115.2,-56.97"/>
</g>
<!-- T -->
<g id="node20" class="node">
<title>T</title>
<polygon fill="#d9d9d9" stroke="black" points="295.5,-52 182.5,-52 182.5,-16 295.5,-16 295.5,-52"/>
<text text-anchor="middle" x="239" y="-30.3" font-family="Times,serif" font-size="14.00">Confirmações</text>
</g>
<!-- R&#45;&gt;T -->
<g id="edge16" class="edge">
<title>R&#45;&gt;T</title>
<path fill="none" stroke="black" d="M176.09,-88.81C186.69,-79.74 199.87,-68.48 211.41,-58.6"/>
<polygon fill="black" stroke="black" points="213.77,-61.19 219.09,-52.03 209.22,-55.87 213.77,-61.19"/>
</g>
</g>
</svg>
